<?xml version="1.0" standalone="no"?>
<!DOCTYPE svg PUBLIC "-//W3C//DTD SVG 20010904//EN"
 "http://www.w3.org/TR/2001/REC-SVG-20010904/DTD/svg10.dtd">
<svg version="1.0" xmlns="http://www.w3.org/2000/svg"
 width="1064.000000pt" height="1064.000000pt" viewBox="0 0 1064.000000 1064.000000"
 preserveAspectRatio="xMidYMid meet">

<g transform="translate(0.000000,1064.000000) scale(0.100000,-0.100000)"
fill="#000000" stroke="none">
<path d="M7340 6805 c-7 -9 -11 -17 -9 -20 3 -2 10 5 17 15 14 24 10 26 -8 5z"/>
<path d="M7385 6780 c-10 -16 4 -30 31 -30 27 0 33 24 8 34 -22 8 -32 8 -39
-4z"/>
<path d="M7543 6775 c-8 -21 3 -30 37 -30 32 0 35 24 4 36 -29 11 -34 10 -41
-6z"/>
<path d="M1465 6700 c3 -5 8 -10 11 -10 2 0 4 5 4 10 0 6 -5 10 -11 10 -5 0
-7 -4 -4 -10z"/>
<path d="M1947 6704 c-9 -9 15 -55 27 -51 19 6 18 35 -2 46 -11 6 -22 8 -25 5z"/>
<path d="M1375 6670 c3 -5 8 -10 11 -10 2 0 4 5 4 10 0 6 -5 10 -11 10 -5 0
-7 -4 -4 -10z"/>
<path d="M7420 6644 c0 -8 5 -12 10 -9 6 4 8 11 5 16 -9 14 -15 11 -15 -7z"/>
<path d="M7450 6639 c0 -5 5 -7 10 -4 6 3 10 8 10 11 0 2 -4 4 -10 4 -5 0 -10
-5 -10 -11z"/>
<path d="M1687 6614 c-8 -8 21 -44 34 -44 5 0 7 10 5 23 -3 22 -26 34 -39 21z"/>
<path d="M7370 6597 c0 -16 24 -39 57 -56 30 -15 93 14 93 43 0 12 -3 16 -8
10 -9 -14 -47 -34 -64 -34 -7 0 -26 11 -42 25 -34 29 -36 30 -36 12z"/>
<path d="M8325 6496 c-151 -47 -256 -181 -271 -345 l-7 -74 379 7 c208 4 383
12 389 17 14 14 6 93 -16 156 -31 91 -85 152 -189 215 -62 37 -205 49 -285 24z
m265 -126 c0 -5 -2 -10 -4 -10 -3 0 -8 5 -11 10 -3 6 -1 10 4 10 6 0 11 -4 11
-10z m75 -31 c0 -8 -12 -15 -29 -16 -15 -1 -26 1 -22 4 3 3 1 12 -5 20 -9 11
-5 12 22 9 20 -2 34 -9 34 -17z m27 -42 c32 5 40 3 36 -8 -3 -8 -18 -14 -34
-15 -16 0 -39 -6 -51 -12 -33 -18 -35 -15 -17 21 10 17 19 26 21 20 3 -9 17
-11 45 -6z m-242 -47 c0 -5 -9 -10 -21 -10 -11 0 -17 5 -14 10 3 6 13 10 21
10 8 0 14 -4 14 -10z m230 -25 c0 -8 -4 -15 -10 -15 -5 0 -10 7 -10 15 0 8 5
15 10 15 6 0 10 -7 10 -15z m-315 -5 c-3 -5 -10 -10 -16 -10 -5 0 -9 5 -9 10
0 6 7 10 16 10 8 0 12 -4 9 -10z m430 -61 c-4 -5 -13 -9 -22 -9 -13 0 -13 3
-3 15 13 15 35 11 25 -6z"/>
<path d="M7388 6483 c6 -2 18 -2 25 0 6 3 1 5 -13 5 -14 0 -19 -2 -12 -5z"/>
<path d="M7530 6480 c0 -5 5 -10 10 -10 6 0 10 5 10 10 0 6 -4 10 -10 10 -5 0
-10 -4 -10 -10z"/>
<path d="M7448 6473 c12 -2 32 -2 45 0 12 2 2 4 -23 4 -25 0 -35 -2 -22 -4z"/>
<path d="M2040 6425 c0 -14 2 -25 4 -25 2 0 6 11 8 25 3 14 1 25 -3 25 -5 0
-9 -11 -9 -25z"/>
<path d="M1725 6430 c3 -5 8 -10 11 -10 2 0 4 5 4 10 0 6 -5 10 -11 10 -5 0
-7 -4 -4 -10z"/>
<path d="M7387 6345 c-4 -8 -2 -17 3 -20 6 -4 10 3 10 14 0 25 -6 27 -13 6z"/>
<path d="M7441 6303 c-1 -30 3 -43 12 -43 22 0 28 12 13 29 -8 9 -16 25 -19
36 -2 11 -5 1 -6 -22z"/>
<path d="M7490 6300 c0 -5 5 -10 11 -10 5 0 7 5 4 10 -3 6 -8 10 -11 10 -2 0
-4 -4 -4 -10z"/>
<path d="M7345 6289 c-59 -11 -75 -11 -132 -3 -45 6 -47 4 -36 -34 5 -19 11
-23 32 -19 27 5 81 -17 81 -33 0 -13 -7 -13 -31 0 -16 9 -19 7 -19 -9 0 -11 9
-26 20 -34 18 -13 19 -15 5 -21 -9 -3 -13 -11 -9 -18 5 -8 0 -9 -16 -5 -13 3
-28 0 -37 -9 -16 -15 -33 -19 -33 -6 0 5 13 22 30 38 32 32 38 54 15 54 -9 0
-18 7 -21 15 -4 8 -12 15 -19 15 -8 0 -15 14 -17 33 l-3 32 -171 0 c-116 0
-176 -4 -185 -12 -11 -9 -19 -8 -33 3 -23 16 -82 19 -91 4 -3 -5 -1 -10 4 -10
6 0 11 -4 11 -10 0 -15 -19 -12 -37 5 -14 14 -18 13 -39 -10 -13 -14 -24 -30
-24 -36 0 -15 17 -11 24 6 7 20 52 19 60 -1 6 -15 8 -15 25 0 17 16 20 15 47
-13 31 -33 39 -70 16 -79 -8 -3 -21 3 -28 12 -7 10 -17 15 -23 11 -14 -8 -14
-35 -1 -35 6 0 15 -11 20 -26 6 -14 23 -29 40 -35 35 -13 39 -34 8 -43 -16 -4
-28 1 -39 16 -11 14 -22 19 -33 15 -14 -6 -16 -3 -10 15 5 17 3 20 -10 15 -18
-7 -58 25 -68 54 -3 8 -9 11 -13 6 -5 -4 -3 -13 3 -19 17 -17 15 -41 -2 -35
-10 4 -13 1 -9 -9 3 -8 0 -21 -7 -29 -7 -8 -10 -22 -6 -30 8 -21 43 -19 49 3
4 13 5 14 6 1 1 -13 21 -16 127 -17 109 -2 130 0 146 15 19 17 20 17 33 0 9
-13 27 -17 69 -17 53 0 56 1 46 19 -14 27 -13 31 11 31 17 0 20 -4 15 -23 -5
-23 -4 -23 77 -23 69 1 82 4 85 19 2 10 -3 17 -11 17 -16 0 -30 24 -20 34 4 3
15 6 25 6 11 0 36 18 56 40 30 34 41 40 70 38 23 -2 37 2 40 11 3 10 -2 12
-20 8 -31 -8 -62 20 -48 43 8 13 13 13 31 1 20 -12 24 -11 40 10 21 28 27 61
7 41 -17 -17 -28 -15 -28 4 0 8 5 12 10 9 6 -3 10 -1 10 4 0 6 -3 10 -7 10 -5
-1 -30 -6 -58 -10z m-405 -51 l0 -33 -15 29 c-18 35 -18 36 0 36 10 0 15 -10
15 -32z m120 -14 c0 -8 -4 -12 -10 -9 -5 3 -10 10 -10 16 0 5 5 9 10 9 6 0 10
-7 10 -16z m104 -30 c9 -3 16 -12 16 -20 0 -19 -7 -18 -32 6 -22 20 -15 26 16
14z m-174 -129 c0 -16 -6 -25 -15 -25 -8 0 -15 7 -15 15 0 8 -6 15 -12 16 -7
1 -2 5 12 9 14 4 26 8 28 9 1 1 2 -10 2 -24z m-144 -43 c-9 -9 -37 8 -31 18 5
8 11 7 21 -1 8 -6 12 -14 10 -17z"/>
<path d="M3715 6265 c-3 -14 -7 -36 -10 -50 -4 -19 -12 -25 -33 -25 -15 0 -43
-5 -63 -10 -30 -8 -38 -16 -43 -41 -15 -76 -4 -89 87 -105 67 -11 136 32 137
85 0 14 8 33 17 43 14 16 15 23 5 39 -7 11 -10 24 -7 29 4 6 0 10 -8 10 -8 0
-22 11 -31 25 -9 14 -23 25 -31 25 -8 0 -17 -11 -20 -25z"/>
<path d="M6270 6282 l-120 -3 0 -175 0 -175 30 -17 c33 -19 33 -45 -1 -72 -18
-14 -19 -28 -15 -202 4 -186 5 -188 36 -249 17 -34 55 -98 84 -143 30 -44 84
-133 121 -196 37 -63 71 -119 77 -125 7 -7 8 94 4 305 -4 173 -6 465 -6 649 0
241 -4 338 -12 348 -9 11 -9 16 2 23 23 14 -6 38 -45 36 -19 0 -89 -2 -155 -4z"/>
<path d="M7637 6276 c-7 -17 1 -26 24 -26 17 0 32 23 22 34 -12 11 -41 6 -46
-8z"/>
<path d="M5298 6272 c-16 -2 -28 -5 -28 -8 0 -2 25 -46 57 -97 31 -50 78 -128
104 -172 62 -102 106 -155 124 -149 16 7 98 -39 88 -49 -3 -4 -21 -7 -40 -7
-33 0 -41 -12 -25 -37 9 -14 90 -11 162 7 25 6 62 13 83 17 21 3 40 10 43 15
4 5 -8 25 -26 43 -18 18 -30 37 -27 42 6 10 -29 69 -63 108 -10 11 -21 30 -25
43 -8 26 -94 170 -131 219 l-25 33 -122 -3 c-67 -1 -134 -3 -149 -5z m458
-409 c25 -4 31 -9 27 -24 -3 -11 -17 -22 -32 -25 -14 -3 -31 -7 -37 -9 -14 -4
-32 34 -26 58 3 13 9 16 20 11 10 -4 31 -9 48 -11z"/>
<path d="M5745 5830 c3 -5 8 -10 11 -10 2 0 4 5 4 10 0 6 -5 10 -11 10 -5 0
-7 -4 -4 -10z"/>
<path d="M4335 6255 c-81 -12 -175 -46 -252 -91 -53 -31 -157 -136 -178 -180
-8 -18 -20 -36 -25 -39 -15 -9 -54 -101 -77 -180 -24 -80 -36 -165 -34 -245 0
-46 5 -59 26 -77 31 -27 34 -63 5 -63 -13 0 -20 -7 -20 -19 0 -29 14 -33 77
-21 92 18 133 19 133 4 0 -8 -8 -14 -19 -14 -10 0 -24 -7 -31 -15 -7 -8 -21
-15 -32 -15 -28 0 -19 -34 10 -38 15 -2 22 2 22 12 0 9 8 16 19 16 10 0 24 6
30 14 6 8 23 16 36 19 20 3 29 -2 45 -28 11 -18 20 -34 20 -37 0 -8 -60 4 -66
13 -11 19 -24 8 -24 -21 0 -25 -4 -30 -25 -30 -14 0 -25 -5 -25 -11 0 -6 -12
-1 -26 10 -31 24 -56 27 -52 7 3 -15 -6 -17 -29 -9 -17 7 -16 23 1 23 12 0 30
49 21 58 -2 2 -15 -4 -29 -13 -21 -14 -25 -22 -20 -44 13 -52 78 -174 96 -179
10 -2 18 -13 18 -23 0 -10 10 -25 21 -33 12 -8 27 -25 33 -37 6 -12 29 -32 51
-44 22 -11 42 -25 43 -30 14 -39 87 -76 134 -68 28 4 39 1 55 -16 11 -12 37
-25 58 -28 34 -5 38 -4 32 11 -4 10 -7 26 -7 36 0 10 -9 20 -20 23 -28 7 -25
22 6 23 14 1 34 10 45 20 16 15 19 15 19 1 0 -10 6 -13 20 -10 23 6 27 23 5
23 -8 0 -15 7 -15 15 0 9 7 18 15 21 27 11 17 42 -15 49 -33 7 -50 1 -50 -20
0 -18 -30 -28 -46 -14 -11 9 -7 18 23 45 20 19 35 35 32 36 -2 2 -20 11 -39
22 -19 10 -56 36 -82 57 -26 22 -52 39 -58 39 -6 0 -9 8 -6 18 4 11 -4 34 -20
57 -21 31 -26 52 -28 102 0 35 -4 63 -8 63 -5 0 -8 7 -8 15 0 8 6 15 13 15 8
0 7 4 -3 10 -12 8 -12 10 5 11 13 0 8 4 -12 10 -18 5 -33 14 -33 19 0 16 -27
11 -34 -6 -3 -8 -10 -13 -16 -9 -5 3 -18 1 -28 -4 -13 -7 -29 -7 -50 1 -26 10
-34 9 -50 -5 -10 -9 -24 -17 -30 -17 -19 0 -14 18 8 30 23 13 27 48 5 56 -26
10 -16 25 11 18 17 -4 29 -2 34 6 6 10 15 8 38 -9 34 -24 81 -35 99 -23 7 4
17 32 22 62 22 121 33 157 66 222 19 38 32 75 29 83 -4 11 1 15 16 15 13 0 41
15 64 33 23 18 62 41 87 50 76 29 80 37 77 167 -2 65 -7 114 -13 116 -5 1 -46
-4 -90 -11z m-127 -1237 c16 -16 15 -28 -3 -28 -8 0 -15 2 -15 4 0 2 -3 11 -6
20 -7 19 7 21 24 4z m-58 -68 c0 -5 -9 -10 -19 -10 -11 0 -23 5 -26 10 -4 6 5
10 19 10 14 0 26 -4 26 -10z"/>
<path d="M4515 6258 c-3 -8 -4 -66 -3 -129 l3 -114 61 -21 c108 -36 176 -93
234 -199 22 -41 46 -76 53 -78 9 -3 9 -9 -1 -27 -8 -12 -11 -34 -7 -50 5 -24
12 -29 49 -34 23 -4 49 -4 58 -1 10 4 17 -1 21 -16 6 -21 24 -23 76 -8 7 2 15
-1 18 -8 8 -21 -38 -35 -121 -37 l-81 -1 -2 -47 c-1 -27 2 -48 7 -48 22 0 8
-29 -17 -37 l-26 -9 23 -21 22 -22 -27 -25 c-27 -25 -27 -46 1 -46 8 0 14 -4
14 -10 0 -5 -10 -9 -22 -7 -15 1 -23 -4 -26 -18 -2 -11 -11 -26 -20 -33 -10
-7 -17 -16 -17 -20 -1 -26 -149 -142 -182 -142 -8 0 -11 -5 -7 -11 3 -6 -3
-24 -15 -40 -23 -31 -27 -69 -10 -86 16 -16 3 -47 -16 -39 -22 8 -27 -9 -19
-60 l7 -46 56 7 c76 9 136 27 207 63 114 57 228 161 271 244 113 222 139 338
81 366 -30 14 -37 32 -13 32 8 0 15 9 15 19 0 11 7 26 15 35 21 21 19 44 -7
52 -14 4 -25 1 -33 -10 -11 -14 -14 -14 -30 4 -18 19 -17 20 6 20 41 1 71 32
71 74 0 21 -2 40 -5 42 -7 7 -47 -14 -76 -40 l-23 -21 7 24 c5 17 4 22 -6 19
-8 -3 -13 -17 -12 -30 1 -23 -3 -26 -38 -32 -22 -3 -48 -2 -59 4 -10 5 -27 10
-38 10 -11 0 -26 7 -33 16 -12 14 -9 16 21 12 30 -3 35 0 38 20 3 17 8 21 22
17 13 -4 23 1 32 14 10 16 16 18 32 9 11 -6 33 -13 48 -14 22 -3 31 2 43 26
19 37 19 55 -1 74 -8 9 -13 20 -9 26 10 16 -43 113 -98 180 -100 122 -279 216
-449 236 -45 5 -59 3 -63 -8z m411 -796 c-9 -9 -37 8 -31 18 5 8 11 7 21 -1 8
-6 12 -14 10 -17z"/>
<path d="M7481 6253 c-16 -17 -14 -19 24 -26 35 -6 75 17 59 33 -8 8 -15 6
-24 -5 -11 -13 -15 -14 -29 -1 -14 12 -18 12 -30 -1z"/>
<path d="M2869 6239 c-137 -27 -232 -82 -356 -206 -55 -56 -99 -104 -96 -107
3 -3 -6 -32 -20 -63 -45 -101 -69 -209 -71 -316 -1 -89 1 -100 20 -116 36 -29
37 -68 2 -62 -5 0 -8 -10 -8 -24 0 -21 5 -25 28 -25 15 0 43 4 62 9 61 17 113
17 118 2 3 -10 -2 -13 -21 -9 -19 4 -27 0 -30 -14 -3 -10 -14 -18 -25 -18 -28
0 -38 -19 -19 -37 14 -14 17 -13 33 6 10 11 26 21 34 21 9 0 20 4 26 9 14 13
64 23 64 13 0 -5 9 -20 21 -33 l21 -24 -27 -3 c-15 -2 -35 4 -46 14 -19 17
-21 15 -23 -21 -1 -14 -9 -21 -28 -23 -16 -2 -28 -8 -28 -15 0 -6 -9 -1 -20
11 -26 27 -40 28 -47 2 -6 -23 -8 -24 -35 -9 -19 10 -20 9 -14 -17 11 -44 59
-118 84 -129 14 -6 20 -15 16 -27 -3 -11 4 -23 21 -34 14 -9 25 -22 25 -29 0
-7 18 -29 39 -48 28 -25 46 -34 60 -30 16 4 20 2 16 -9 -8 -19 20 -42 40 -34
9 3 13 2 10 -3 -9 -16 17 -26 67 -26 36 0 52 -6 68 -23 25 -27 86 -32 76 -6
-3 9 -6 22 -6 30 0 8 -11 19 -25 24 -35 13 -32 33 4 25 22 -5 34 -1 49 16 19
20 22 20 37 5 9 -9 21 -14 26 -10 13 7 1 24 -17 24 -19 0 -18 29 1 36 27 11
17 42 -16 49 -17 4 -31 5 -32 3 -17 -32 -27 -44 -41 -46 -20 -4 -36 30 -17 36
7 2 21 13 29 23 9 11 27 19 40 19 13 0 20 4 17 10 -3 6 -19 10 -34 10 -28 0
-151 81 -151 100 0 6 -7 10 -15 10 -9 0 -15 9 -15 22 0 11 -11 36 -25 54 -14
18 -25 42 -25 53 0 11 -4 23 -10 26 -5 3 -10 23 -10 43 -1 57 -17 115 -37 130
-12 8 -14 15 -7 20 21 14 32 47 32 102 0 58 25 134 68 207 13 23 24 51 24 62
0 12 6 21 16 21 8 0 30 11 47 24 18 13 57 35 87 49 88 40 89 41 93 139 5 109
-1 145 -22 150 -9 3 -55 -3 -102 -13z m-329 -724 c8 -7 27 -15 43 -19 37 -9
34 -29 -8 -42 -28 -9 -39 -8 -55 3 -18 13 -24 13 -45 -1 -33 -22 -42 -20 -21
3 10 11 16 28 14 38 -2 11 4 23 16 30 21 11 29 10 56 -12z m228 -524 c3 -8 -1
-12 -9 -9 -7 2 -15 10 -17 17 -3 8 1 12 9 9 7 -2 15 -10 17 -17z m-208 -1 c0
-5 -2 -10 -4 -10 -3 0 -8 5 -11 10 -3 6 -1 10 4 10 6 0 11 -4 11 -10z m140
-50 c12 -8 9 -10 -12 -10 -16 0 -28 5 -28 10 0 13 20 13 40 0z m150 -110 c0
-5 -4 -10 -10 -10 -5 0 -10 5 -10 10 0 6 5 10 10 10 6 0 10 -4 10 -10z"/>
<path d="M3069 6234 c-3 -64 3 -230 9 -235 4 -3 30 -14 57 -24 28 -10 63 -27
78 -38 24 -16 26 -21 13 -31 -14 -10 -14 -18 4 -78 11 -36 19 -72 18 -79 -4
-15 58 -33 81 -24 13 6 12 8 -6 16 -30 11 -29 27 2 35 14 3 22 11 19 18 -6 11
17 -16 56 -66 26 -33 38 -34 90 -8 47 24 70 25 70 5 0 -28 85 -15 93 15 4 14
13 17 54 13 28 -3 53 -1 57 5 10 17 26 150 20 167 -5 12 -14 15 -30 11 -17 -5
-24 -2 -24 9 0 13 -3 13 -20 3 -15 -10 -22 -10 -32 0 -6 6 -22 12 -34 12 -15
0 -34 16 -58 49 -87 118 -288 226 -443 238 -67 5 -73 4 -74 -13z m571 -439
c-7 -8 -16 -12 -21 -9 -13 8 -1 24 18 24 13 0 13 -3 3 -15z"/>
<path d="M3897 6242 c-13 -22 -16 -65 -6 -83 6 -11 13 -18 16 -15 3 3 13 -4
23 -16 23 -29 54 -18 47 18 -5 26 17 59 34 48 5 -3 12 3 16 12 6 16 7 16 14
-2 7 -17 8 -17 8 -1 1 9 6 17 13 17 27 0 -10 18 -49 25 l-43 7 0 -41 c0 -23
-1 -41 -3 -41 -1 0 -17 -4 -35 -9 -31 -9 -33 -9 -26 12 4 12 11 24 15 25 15 6
10 39 -6 45 -8 4 -16 3 -18 -1z"/>
<path d="M1840 6220 c0 -5 7 -10 15 -10 8 0 15 5 15 10 0 6 -7 10 -15 10 -8 0
-15 -4 -15 -10z"/>
<path d="M7630 6215 c0 -17 2 -18 24 -9 18 7 12 24 -10 24 -8 0 -14 -7 -14
-15z"/>
<path d="M7550 6200 c0 -5 5 -10 10 -10 6 0 10 5 10 10 0 6 -4 10 -10 10 -5 0
-10 -4 -10 -10z"/>
<path d="M7430 6161 c0 -21 10 -38 36 -61 29 -25 34 -34 23 -41 -25 -15 -36
-10 -53 26 -17 34 -63 58 -93 47 -15 -5 -17 -32 -3 -32 6 0 10 -5 10 -10 0 -6
-10 -8 -24 -4 -22 5 -24 3 -23 -29 1 -31 5 -36 38 -47 52 -17 307 -6 327 14
18 17 30 146 14 146 -6 0 -15 -7 -20 -16 -12 -21 -32 -10 -32 17 0 31 -24 22
-44 -16 -15 -28 -24 -34 -40 -29 -12 3 -26 13 -33 21 -6 8 -19 13 -30 11 -12
-2 -17 2 -15 15 2 11 -4 17 -18 17 -15 0 -20 -6 -20 -29z m77 -53 c-3 -8 -6
-5 -6 6 -1 11 2 17 5 13 3 -3 4 -12 1 -19z m124 -25 c-8 -15 -10 -15 -11 -2 0
17 10 32 18 25 2 -3 -1 -13 -7 -23z"/>
<path d="M2376 6145 c-9 -26 -7 -32 5 -12 6 10 9 21 6 23 -2 3 -7 -2 -11 -11z"/>
<path d="M5260 5979 c0 -206 3 -213 69 -180 22 12 45 21 51 21 13 0 50 37 50
51 0 10 -127 229 -154 264 -14 18 -15 4 -16 -156z"/>
<path d="M2052 6038 c-15 -47 -14 -49 16 -41 18 4 21 10 16 32 -12 48 -19 51
-32 9z"/>
<path d="M1775 5980 c-3 -5 -1 -10 4 -10 6 0 11 5 11 10 0 6 -2 10 -4 10 -3 0
-8 -4 -11 -10z"/>
<path d="M8716 5971 c-5 -8 42 -282 61 -358 5 -21 11 -23 73 -23 38 0 71 4 74
8 3 5 -5 47 -18 93 -18 66 -26 83 -39 81 -11 -2 -21 7 -27 23 -14 36 -13 45 6
45 17 0 16 17 -7 102 l-10 38 -54 0 c-30 0 -56 -4 -59 -9z m124 -302 c0 -11
-27 -12 -34 0 -3 4 -3 11 0 14 8 8 34 -3 34 -14z"/>
<path d="M8286 5938 c-5 -30 -46 -343 -46 -354 0 -3 35 -4 78 -2 l77 3 0 43
c-1 23 -2 110 -3 192 l-2 150 -49 0 c-47 0 -49 -1 -55 -32z"/>
<path d="M8504 5878 c3 -50 6 -135 6 -190 l0 -98 75 0 c57 0 75 3 75 14 0 14
-42 227 -61 314 l-12 52 -45 0 -45 0 7 -92z"/>
<path d="M1958 5953 c-11 -3 -18 -14 -18 -26 1 -27 25 -73 32 -61 11 17 20 94
11 93 -4 -1 -16 -3 -25 -6z"/>
<path d="M8050 5956 c0 -2 -16 -80 -35 -173 -49 -232 -52 -208 28 -207 37 1
70 4 74 8 7 6 52 311 53 354 0 20 -4 22 -60 22 -33 0 -60 -2 -60 -4z"/>
<path d="M7024 5927 c-38 -8 -42 -13 -47 -45 -4 -19 -2 -43 3 -53 6 -9 7 -31
4 -48 -6 -27 -4 -31 15 -31 27 0 27 -9 -2 -42 -18 -21 -22 -36 -20 -75 1 -26
2 -60 2 -75 1 -27 3 -28 52 -28 54 0 65 -19 19 -30 -17 -4 -27 -16 -34 -40 -5
-19 -15 -38 -22 -42 -9 -6 -12 -85 -13 -313 l-2 -305 53 -1 c29 0 71 -2 93 -3
22 -2 73 -1 113 2 l72 5 0 198 c0 149 -3 198 -12 202 -10 3 -10 7 1 20 19 24
8 45 -22 40 -18 -4 -29 1 -39 16 -7 12 -23 21 -35 21 -33 0 -28 14 12 33 45
22 45 22 45 -9 0 -16 5 -24 13 -21 6 2 12 13 12 24 0 11 6 27 13 36 11 13 10
16 -5 20 -17 4 -17 5 0 6 22 1 22 29 1 60 -16 22 -16 24 0 33 23 13 23 133 0
146 -15 8 -15 10 1 15 12 5 14 13 9 29 -4 13 -6 54 -5 91 2 66 1 68 -18 62
-26 -8 -27 3 -3 21 13 10 14 15 5 25 -10 10 -15 9 -28 -1 -18 -15 -21 1 -4 31
7 14 16 18 31 13 14 -4 19 -2 16 7 -5 16 -72 19 -104 6 -14 -6 -29 -5 -40 1
-12 7 -25 6 -41 -1 -14 -6 -27 -7 -35 0 -8 6 -28 6 -54 0z m36 -27 c0 -5 -5
-10 -11 -10 -5 0 -7 5 -4 10 3 6 8 10 11 10 2 0 4 -4 4 -10z m120 -75 c0 -8
-2 -15 -4 -15 -2 0 -6 7 -10 15 -3 8 -1 15 4 15 6 0 10 -7 10 -15z m70 -223
c-7 -3 -19 3 -28 13 -16 15 -15 16 12 4 15 -7 23 -15 16 -17z m-207 -35 c-2
-4 -14 -5 -26 -1 -28 8 -30 11 -23 22 4 7 15 6 30 -1 13 -7 22 -15 19 -20z
m96 -25 c-5 -2 -17 -1 -25 2 -13 5 -14 9 -4 21 11 13 14 13 26 -2 7 -10 9 -19
3 -21z m56 -22 c-3 -5 -11 -10 -16 -10 -6 0 -7 5 -4 10 3 6 11 10 16 10 6 0 7
-4 4 -10z m-66 -100 c14 -1 14 -2 -1 -14 -10 -7 -18 -23 -18 -35 0 -14 -5 -21
-12 -18 -7 2 -12 15 -10 29 2 19 -3 27 -18 31 -27 7 -25 35 3 39 13 2 25 -3
31 -14 5 -10 16 -18 25 -18z m-83 -41 c9 -16 -10 -31 -30 -23 -13 5 -14 9 -5
20 14 17 25 18 35 3z m134 4 c-1 -18 -28 -44 -35 -33 -4 6 -1 17 5 25 13 16
30 20 30 8z m102 -295 c-7 -7 -12 -8 -12 -2 0 14 12 26 19 19 2 -3 -1 -11 -7
-17z"/>
<path d="M2270 5910 c0 -5 4 -10 9 -10 6 0 13 5 16 10 3 6 -1 10 -9 10 -9 0
-16 -4 -16 -10z"/>
<path d="M6160 5884 c0 -8 5 -12 10 -9 6 4 8 11 5 16 -9 14 -15 11 -15 -7z"/>
<path d="M3025 5804 c-11 -3 -30 -7 -42 -9 -15 -4 -20 -10 -16 -25 8 -30 28
-43 50 -31 10 5 33 16 51 23 58 23 24 56 -43 42z"/>
<path d="M5343 5743 c-19 -21 -41 -33 -57 -33 -22 0 -26 -4 -26 -30 0 -23 5
-30 19 -30 11 0 23 5 26 10 3 6 16 10 27 10 12 0 35 4 52 9 17 6 57 15 89 21
31 6 57 15 57 19 0 18 -29 32 -54 25 -17 -4 -26 -2 -26 6 0 7 -12 10 -30 8
-17 -1 -34 2 -38 7 -4 6 -20 -4 -39 -22z"/>
<path d="M3116 5714 c-3 -9 -6 -40 -6 -70 0 -41 4 -54 15 -54 34 0 49 95 19
124 -19 20 -20 20 -28 0z"/>
<path d="M5851 5716 c-11 -13 -65 -29 -103 -30 -9 -1 -20 -4 -24 -8 -11 -12
-49 -9 -62 4 -9 9 -15 9 -24 0 -8 -8 -5 -20 14 -49 14 -21 47 -74 73 -118 27
-44 54 -87 61 -95 10 -13 219 -355 328 -537 17 -29 38 -54 46 -55 8 -2 15 -12
15 -23 0 -19 7 -20 115 -20 63 0 132 2 152 5 l37 5 -163 270 c-345 571 -356
590 -374 590 -12 0 -16 7 -14 23 2 13 -2 30 -8 38 -16 18 -54 18 -69 0z"/>
<path d="M5026 5701 c-4 -5 -2 -12 3 -15 5 -4 12 -2 15 3 4 5 2 12 -3 15 -5 4
-12 2 -15 -3z"/>
<path d="M5486 5654 c-4 -10 -17 -12 -51 -7 -47 6 -60 -5 -23 -22 26 -12 45
-41 34 -52 -4 -4 -12 0 -17 10 -6 9 -18 17 -27 17 -9 0 -25 7 -36 15 -19 15
-70 11 -93 -7 -10 -8 -11 -100 -7 -407 3 -218 7 -401 9 -407 4 -13 205 -25
277 -17 l46 5 -4 302 c-2 165 -7 335 -11 376 -4 41 -6 88 -4 104 2 18 -5 35
-18 47 -12 11 -21 23 -21 27 0 4 -11 12 -24 18 -20 9 -26 9 -30 -2z m-130
-115 c3 -6 1 -16 -5 -22 -9 -9 -14 -8 -21 3 -9 15 -4 30 10 30 5 0 12 -5 16
-11z m94 -29 c0 -5 -10 -10 -22 -9 -22 0 -22 1 -3 9 11 5 21 9 23 9 1 1 2 -3
2 -9z"/>
<path d="M4865 5570 c3 -5 8 -10 11 -10 2 0 4 5 4 10 0 6 -5 10 -11 10 -5 0
-7 -4 -4 -10z"/>
<path d="M8627 5474 c-1 -1 -153 -4 -337 -8 -184 -4 -338 -10 -341 -14 -7 -8
-24 -79 -64 -267 -14 -66 -30 -138 -35 -160 -25 -106 -52 -247 -47 -252 4 -3
28 10 54 29 89 65 82 65 177 4 l85 -55 33 23 c18 12 57 39 86 60 l53 37 90
-57 c85 -54 90 -55 112 -40 12 9 33 24 47 33 14 10 38 28 53 40 16 13 37 23
46 23 10 0 53 -22 95 -50 42 -27 79 -50 82 -50 3 0 41 25 84 55 43 30 84 55
91 55 7 0 41 -19 76 -41 35 -23 66 -40 68 -37 5 4 -26 123 -139 548 l-33 125
-167 0 c-92 0 -168 -1 -169 -1z m12 -73 c21 -13 5 -41 -23 -41 -29 0 -41 26
-18 39 21 13 24 13 41 2z m284 -4 c35 -15 34 -20 -9 -33 -28 -9 -37 -9 -40 1
-3 7 -14 15 -25 18 -10 3 -19 10 -19 15 0 14 58 13 93 -1z m-125 -25 c2 -15
-2 -22 -13 -22 -9 0 -19 -9 -22 -19 -6 -22 -29 -35 -38 -21 -4 6 -14 10 -25
10 -10 0 -21 7 -24 16 -9 24 -8 26 13 14 29 -15 41 -12 41 10 0 40 63 52 68
12z m158 -24 c4 -6 0 -16 -9 -23 -10 -7 -17 -17 -17 -24 0 -14 -17 -15 -25 -1
-6 11 23 60 36 60 4 0 11 -5 15 -12z m-129 -68 c1 -14 -4 -20 -18 -20 -12 0
-19 7 -19 20 0 13 7 20 18 20 11 0 18 -8 19 -20z m-29 -132 c-7 -19 -38 -22
-38 -4 0 10 9 16 21 16 12 0 19 -5 17 -12z m-745 -17 c5 -20 -10 -31 -43 -31
-25 0 -35 17 -20 35 18 22 57 19 63 -4z m168 -24 c-5 -5 -18 -7 -28 -3 -14 6
-15 9 -4 16 19 11 46 1 32 -13z"/>
<path d="M6980 5460 c0 -5 5 -10 10 -10 6 0 10 5 10 10 0 6 -4 10 -10 10 -5 0
-10 -4 -10 -10z"/>
<path d="M3136 5397 c-14 -10 -16 -19 -9 -47 10 -36 20 -45 42 -31 9 6 11 20
6 50 -7 44 -12 48 -39 28z"/>
<path d="M4831 5364 c0 -11 3 -14 6 -6 3 7 2 16 -1 19 -3 4 -6 -2 -5 -13z"/>
<path d="M4570 5300 c0 -5 5 -10 11 -10 5 0 7 5 4 10 -3 6 -8 10 -11 10 -2 0
-4 -4 -4 -10z"/>
<path d="M3395 5289 c-4 -5 1 -12 9 -15 23 -9 20 -24 -4 -24 -13 0 -20 -7 -20
-20 0 -11 -7 -23 -15 -26 -8 -4 -15 -15 -15 -25 0 -10 -4 -19 -9 -19 -5 0 -29
-16 -53 -35 -23 -20 -60 -49 -80 -65 -21 -17 -43 -27 -52 -24 -11 4 -13 0 -9
-16 4 -15 0 -26 -10 -31 -24 -14 -31 -64 -13 -92 17 -26 13 -37 -15 -37 -22 0
-34 -38 -25 -76 7 -26 8 -26 74 -19 124 13 256 79 379 189 29 26 62 65 75 87
12 21 25 39 30 39 10 0 11 -24 1 -34 -4 -3 -7 -15 -8 -25 -1 -16 5 -18 44 -16
25 1 51 3 56 4 18 2 17 117 0 151 -17 33 -26 36 -55 18 -17 -11 -28 -8 -74 17
-56 30 -70 46 -23 24 19 -9 36 -9 59 -2 l33 10 -30 12 c-17 8 -48 10 -73 7
-33 -4 -54 0 -91 17 -69 34 -80 37 -86 26z"/>
<path d="M2387 5272 c-24 -26 -22 -51 2 -45 16 4 30 29 31 56 0 13 -16 7 -33
-11z"/>
<path d="M3960 5261 c0 -6 5 -13 10 -16 6 -3 10 1 10 9 0 9 -4 16 -10 16 -5 0
-10 -4 -10 -9z"/>
<path d="M2520 5240 c0 -5 5 -10 10 -10 6 0 10 5 10 10 0 6 -4 10 -10 10 -5 0
-10 -4 -10 -10z"/>
<path d="M3180 5079 c0 -5 5 -7 10 -4 6 3 10 8 10 11 0 2 -4 4 -10 4 -5 0 -10
-5 -10 -11z"/>
<path d="M5120 4984 c0 -40 2 -45 15 -34 8 7 15 28 15 46 0 24 -5 34 -15 34
-11 0 -15 -12 -15 -46z"/>
<path d="M2221 4994 c0 -11 3 -14 6 -6 3 7 2 16 -1 19 -3 4 -6 -2 -5 -13z"/>
<path d="M3703 4880 c-11 -16 -10 -18 2 -14 8 4 15 12 15 20 0 19 -3 18 -17
-6z"/>
<path d="M5072 4873 c-9 -3 -4 -10 14 -19 15 -8 29 -12 32 -10 4 5 -23 37 -30
35 -2 0 -9 -3 -16 -6z"/>
<path d="M3670 4847 c0 -8 7 -14 15 -14 11 0 12 4 4 14 -6 7 -13 13 -15 13 -2
0 -4 -6 -4 -13z"/>
<path d="M1130 4816 c0 -20 4 -23 23 -18 30 7 40 25 19 34 -31 12 -42 8 -42
-16z"/>
<path d="M5131 4809 c-10 -28 -9 -30 11 -23 12 3 35 13 52 21 l31 14 -37 -4
c-20 -1 -35 0 -32 4 2 4 0 10 -5 13 -5 3 -14 -8 -20 -25z"/>
<path d="M4410 4786 c0 -10 9 -16 21 -16 24 0 21 23 -4 28 -10 2 -17 -3 -17
-12z"/>
<path d="M2965 4780 c-3 -6 1 -13 10 -16 19 -8 30 0 20 15 -8 14 -22 14 -30 1z"/>
<path d="M5080 4626 c0 -16 37 -46 57 -46 9 0 10 7 4 23 -5 12 -13 22 -19 22
-6 0 -14 3 -18 8 -12 12 -24 8 -24 -7z"/>
<path d="M5188 4519 c-2 -6 -16 -12 -31 -12 -44 -3 -36 -19 17 -31 22 -6 27
-4 23 7 -3 8 -1 19 5 25 6 6 6 12 0 16 -6 3 -12 1 -14 -5z"/>
</g>
</svg>
